<svg version="1.1" id="Layer_1" xmlns="http://www.w3.org/2000/svg" xmlns:xlink="http://www.w3.org/1999/xlink" x="0px" y="0px"
	 width="100%" viewBox="0 0 512 512" enable-background="new 0 0 512 512" xml:space="preserve">
<path fill="#000000" opacity="1.000000" stroke="none" 
	d="
M513.000000,247.000000 
	C513.000000,253.354385 513.000000,259.708771 512.624023,266.656281 
	C509.324158,282.571869 501.012238,294.045776 487.038422,300.898804 
	C477.703430,305.476929 467.944672,309.195923 458.349365,313.237183 
	C443.436340,319.518066 428.516388,325.783051 413.571014,331.986481 
	C397.150787,338.802032 380.687775,345.514374 364.263336,352.319794 
	C349.315338,358.513428 334.408234,364.805786 319.457214,370.991974 
	C303.177979,377.727661 286.853302,384.353668 270.577423,391.097290 
	C255.480728,397.352386 240.424484,403.704987 225.346252,410.004669 
	C208.789871,416.921936 192.232635,423.837219 175.668427,430.735748 
	C161.028244,436.833008 146.378769,442.908020 131.731873,448.989197 
	C115.014435,455.930054 98.313812,462.911896 81.570343,469.789429 
	C70.651588,474.274384 59.861801,478.972321 47.506157,478.078583 
	C29.382544,476.767578 15.955561,468.360687 6.999985,452.691406 
	C4.828617,448.892212 2.991051,444.902252 0.999999,441.000000 
	C1.000000,432.312439 1.000000,423.624878 1.409463,414.463440 
	C3.875351,407.208435 6.196714,400.494812 7.944349,393.635010 
	C17.825808,354.848511 27.648611,316.046478 37.253044,277.190826 
	C38.360065,272.712280 40.356674,271.879425 44.627617,271.892151 
	C99.456810,272.055450 154.286682,272.022980 209.116287,271.956543 
	C213.520325,271.951202 218.017059,271.777100 222.303116,270.880341 
	C227.445663,269.804443 231.190536,266.700470 233.068573,261.395935 
	C234.978668,256.000885 233.603775,251.574921 230.034393,247.575623 
	C225.744797,242.769379 219.885056,242.041489 213.979340,242.035309 
	C157.483170,241.976242 100.986900,241.999985 44.490669,241.999954 
	C43.490738,241.999954 42.298161,242.346680 41.533688,241.922333 
	C40.215611,241.190674 38.475521,240.177429 38.118099,238.935410 
	C36.473366,233.220123 35.326561,227.364197 33.854870,221.596039 
	C25.590643,189.205231 17.349634,156.808197 8.950596,124.452255 
	C6.557872,115.234673 3.664040,106.147156 1.000000,97.000000 
	C1.000000,89.979050 1.000000,82.958107 1.372166,75.348434 
	C4.727355,68.425156 6.926327,61.551785 10.840077,55.856869 
	C22.686800,38.618660 45.018761,31.311768 64.799500,38.068245 
	C75.844498,41.840874 86.558060,46.594856 97.379646,51.007961 
	C113.838066,57.719803 130.274094,64.487099 146.694366,71.291771 
	C161.639603,77.485184 176.533356,83.802872 191.482407,89.986977 
	C207.758118,96.719887 224.090942,103.314796 240.362534,110.057579 
	C255.456665,116.312431 270.484375,122.727531 285.575165,128.990479 
	C301.844086,135.742371 318.166779,142.364548 334.439117,149.108231 
	C349.532074,155.363144 364.576569,161.735031 379.666199,167.998047 
	C395.935852,174.750824 412.241608,181.416580 428.516052,188.157852 
	C445.236359,195.083801 461.989319,201.934921 478.627838,209.052872 
	C488.189514,213.143372 497.848694,217.517593 503.358795,227.006271 
	C507.063416,233.385803 509.819519,240.316101 513.000000,247.000000 
z"/>
<path fill="#FFFFFF" opacity="1.000000" stroke="none" 
	d="
M513.000000,246.531342 
	C509.819519,240.316101 507.063416,233.385803 503.358795,227.006271 
	C497.848694,217.517593 488.189514,213.143372 478.627838,209.052872 
	C461.989319,201.934921 445.236359,195.083801 428.516052,188.157852 
	C412.241608,181.416580 395.935852,174.750824 379.666199,167.998047 
	C364.576569,161.735031 349.532074,155.363144 334.439117,149.108231 
	C318.166779,142.364548 301.844086,135.742371 285.575165,128.990479 
	C270.484375,122.727531 255.456665,116.312431 240.362534,110.057579 
	C224.090942,103.314796 207.758118,96.719887 191.482407,89.986977 
	C176.533356,83.802872 161.639603,77.485184 146.694366,71.291771 
	C130.274094,64.487099 113.838066,57.719803 97.379646,51.007961 
	C86.558060,46.594856 75.844498,41.840874 64.799500,38.068245 
	C45.018761,31.311768 22.686800,38.618660 10.840077,55.856869 
	C6.926327,61.551785 4.727355,68.425156 1.372166,74.879852 
	C1.000000,50.346302 1.000000,25.692602 1.000000,1.019451 
	C171.563980,1.019451 342.127960,1.019451 513.000000,1.019451 
	C513.000000,82.687302 513.000000,164.375000 513.000000,246.531342 
z"/>
<path fill="#FFFFFF" opacity="1.000000" stroke="none" 
	d="
M0.999999,441.468658 
	C2.991051,444.902252 4.828617,448.892212 6.999985,452.691406 
	C15.955561,468.360687 29.382544,476.767578 47.506157,478.078583 
	C59.861801,478.972321 70.651588,474.274384 81.570343,469.789429 
	C98.313812,462.911896 115.014435,455.930054 131.731873,448.989197 
	C146.378769,442.908020 161.028244,436.833008 175.668427,430.735748 
	C192.232635,423.837219 208.789871,416.921936 225.346252,410.004669 
	C240.424484,403.704987 255.480728,397.352386 270.577423,391.097290 
	C286.853302,384.353668 303.177979,377.727661 319.457214,370.991974 
	C334.408234,364.805786 349.315338,358.513428 364.263336,352.319794 
	C380.687775,345.514374 397.150787,338.802032 413.571014,331.986481 
	C428.516388,325.783051 443.436340,319.518066 458.349365,313.237183 
	C467.944672,309.195923 477.703430,305.476929 487.038422,300.898804 
	C501.012238,294.045776 509.324158,282.571869 512.624023,267.124695 
	C513.000000,348.956757 513.000000,430.913483 513.000000,512.935120 
	C342.333344,512.935120 171.666672,512.935120 1.000000,512.935120 
	C1.000000,489.245819 1.000000,465.591583 0.999999,441.468658 
z"/>
<path fill="#FFFFFF" opacity="1.000000" stroke="none" 
	d="
M1.000000,97.468658 
	C3.664040,106.147156 6.557872,115.234673 8.950596,124.452255 
	C17.349634,156.808197 25.590643,189.205231 33.854870,221.596039 
	C35.326561,227.364197 36.473366,233.220123 38.118099,238.935410 
	C38.475521,240.177429 40.215611,241.190674 41.533688,241.922333 
	C42.298161,242.346680 43.490738,241.999954 44.490669,241.999954 
	C100.986900,241.999985 157.483170,241.976242 213.979340,242.035309 
	C219.885056,242.041489 225.744797,242.769379 230.034393,247.575623 
	C233.603775,251.574921 234.978668,256.000885 233.068573,261.395935 
	C231.190536,266.700470 227.445663,269.804443 222.303116,270.880341 
	C218.017059,271.777100 213.520325,271.951202 209.116287,271.956543 
	C154.286682,272.022980 99.456810,272.055450 44.627617,271.892151 
	C40.356674,271.879425 38.360065,272.712280 37.253044,277.190826 
	C27.648611,316.046478 17.825808,354.848511 7.944349,393.635010 
	C6.196714,400.494812 3.875351,407.208435 1.409463,413.994781 
	C1.000000,308.645782 1.000000,203.291550 1.000000,97.468658 
z"/>
</svg>