<svg version="1.1" id="Layer_1" xmlns="http://www.w3.org/2000/svg" xmlns:xlink="http://www.w3.org/1999/xlink" x="0px" y="0px"
	 width="100%" viewBox="0 0 512 512" enable-background="new 0 0 512 512" xml:space="preserve">
<path fill="#000000" opacity="1.000000" stroke="none" 
	d="
M234.000000,1.000000 
	C251.687561,1.000000 269.375122,1.000000 287.814758,1.205926 
	C290.742218,3.178943 293.377319,2.266233 295.786469,2.674038 
	C320.100098,6.789762 343.694977,13.426949 366.026215,23.959328 
	C401.907715,40.882599 432.184967,64.961075 457.201416,95.813293 
	C480.375305,124.393036 496.407684,156.439758 505.702454,191.980911 
	C509.400787,206.122589 511.663055,220.474594 513.000000,235.000000 
	C513.000000,249.687561 513.000000,264.375122 512.979858,279.933075 
	C511.127838,297.455444 508.203888,313.866730 503.501587,329.998352 
	C492.768250,366.819855 474.517242,399.502258 449.006042,427.937683 
	C433.346832,445.391785 415.758698,460.822815 395.799896,473.494690 
	C367.559570,491.424500 337.202728,503.611908 304.281952,509.628479 
	C299.184265,510.560120 293.706940,510.179504 289.000000,513.000000 
	C267.979095,513.000000 246.958206,513.000000 225.233948,512.727783 
	C223.942108,512.162781 223.376282,511.677917 222.761841,511.605469 
	C209.735229,510.069611 197.026367,507.153503 184.404800,503.575928 
	C147.476318,493.108582 114.856842,474.725983 86.347267,449.344604 
	C67.825058,432.854767 51.662167,414.105896 38.611530,392.810730 
	C21.784740,365.353851 10.157057,335.977936 4.409946,304.237030 
	C3.489061,299.151031 3.933537,293.663757 1.000000,289.000000 
	C1.000000,270.979095 1.000000,252.958206 1.031004,234.069290 
	C2.337046,224.194321 3.201330,215.106323 4.960325,206.194901 
	C11.538600,172.868057 24.206161,141.894592 43.213051,113.794327 
	C63.262035,84.153397 88.425758,59.459709 118.666183,40.132439 
	C139.385452,26.890327 161.572372,16.935953 185.227737,10.095449 
	C201.221161,5.470573 217.504822,2.754532 234.000000,1.000000 
M209.619644,95.052216 
	C249.081116,74.958191 309.502716,80.767815 341.237244,124.615623 
	C382.745087,181.967316 371.297089,234.793945 321.424652,282.137360 
	C375.588501,304.754913 411.070557,344.416504 427.941345,400.933044 
	C471.078888,355.817871 503.032593,263.617828 465.175659,171.771622 
	C430.425140,87.462013 345.514160,25.154150 239.760315,32.692612 
	C146.452759,39.343868 59.707890,106.252289 37.046623,210.341995 
	C26.303549,259.688019 32.395130,307.504608 53.844189,353.139069 
	C61.990738,370.471436 71.958992,386.860718 85.887115,401.725861 
	C93.776405,373.641479 106.760315,349.574005 125.552925,328.743317 
	C144.406555,307.845062 167.220047,292.550964 194.230530,281.754272 
	C192.064957,279.902344 190.837280,278.787720 189.543518,277.756012 
	C174.974396,266.137787 163.772186,252.000000 156.725479,234.622055 
	C148.714050,214.864975 146.576706,194.513214 150.080322,173.543976 
	C153.516098,152.980713 162.521515,135.004440 176.332184,119.564514 
	C185.481506,109.335831 196.290466,101.041420 209.619644,95.052216 
M113.539047,428.778168 
	C114.121719,429.565979 114.576469,430.505951 115.306000,431.119049 
	C129.632477,443.159698 145.403915,453.085510 162.324417,460.873016 
	C183.182526,470.472809 205.004074,476.981506 227.981094,479.899017 
	C251.273956,482.856567 274.409332,482.589966 297.340607,478.278687 
	C332.817444,471.608734 364.937683,457.131592 393.825439,435.258087 
	C399.554077,430.920380 400.961853,426.806763 399.495453,420.289856 
	C390.278473,379.328156 368.898438,346.861237 333.099518,324.328735 
	C311.090820,310.476044 286.995728,303.346222 261.095612,302.474243 
	C243.022903,301.865784 225.563156,305.094940 208.462173,311.147675 
	C181.484634,320.696136 159.726837,337.167938 142.273926,359.539764 
	C126.517014,379.737579 117.136223,402.703461 113.539047,428.778168 
M181.238434,182.400513 
	C179.765381,189.827057 180.132706,197.216492 181.305496,204.665070 
	C186.967560,240.625336 218.097687,268.495239 254.698883,269.455383 
	C281.383301,270.155426 302.985992,258.880981 318.953369,237.480042 
	C330.681183,221.761383 335.625214,203.781662 333.275421,184.378311 
	C330.786163,163.823730 321.359070,146.640091 305.189911,133.384674 
	C287.579895,118.948029 267.343262,113.877335 245.058136,117.100304 
	C225.272842,119.961746 209.232056,129.829056 196.945450,145.410004 
	C188.620895,155.966553 182.965927,167.938354 181.238434,182.400513 
z"/>
</svg>